<?xml version="1.0" standalone="no"?>
<!DOCTYPE svg PUBLIC "-//W3C//DTD SVG 20010904//EN"
 "http://www.w3.org/TR/2001/REC-SVG-20010904/DTD/svg10.dtd">
<svg version="1.0" xmlns="http://www.w3.org/2000/svg"
 width="500.000000pt" height="500.000000pt" viewBox="0 0 500.000000 500.000000"
 preserveAspectRatio="xMidYMid meet">
<metadata>
Created by potrace 1.11, written by Peter Selinger 2001-2013
</metadata>
<g transform="translate(0.000000,500.000000) scale(0.100000,-0.100000)"
fill="#000000" stroke="none">
<path d="M1520 4332 c47 -92 101 -249 115 -332 3 -19 8 -48 11 -65 8 -41 7
-222 0 -265 -33 -185 -108 -305 -351 -565 -169 -181 -246 -400 -240 -684 2
-80 11 -164 24 -231 12 -58 24 -116 27 -130 3 -13 7 -26 8 -28 2 -2 29 47 60
108 80 159 135 237 259 367 65 67 181 158 257 201 140 78 234 139 286 184 108
94 183 215 228 369 20 72 24 102 21 204 -2 128 -5 146 -35 243 -71 222 -191
376 -405 519 -71 47 -183 106 -242 127 l-42 15 19 -37z"/>
<path d="M3056 4353 c-140 -24 -230 -60 -308 -125 -92 -77 -157 -205 -181
-361 -13 -84 -14 -118 -4 -228 4 -35 10 -100 13 -144 28 -307 -47 -533 -236
-714 -44 -42 -164 -121 -184 -121 -16 0 -29 -14 -20 -22 7 -7 188 45 254 72
143 61 254 135 355 237 112 114 161 201 232 407 81 239 145 350 265 461 172
159 408 203 650 121 37 -12 68 -19 68 -15 0 16 -76 107 -145 176 -216 211
-486 302 -759 256z"/>
<path d="M3428 3515 c-3 -6 -11 -28 -18 -50 -24 -76 -99 -235 -156 -333 -122
-207 -303 -417 -454 -524 -86 -61 -231 -136 -360 -188 -58 -23 -114 -46 -125
-50 -11 -5 -65 -25 -120 -45 -372 -136 -542 -232 -714 -404 -102 -102 -116
-117 -172 -196 -138 -194 -227 -423 -274 -705 -3 -19 -8 -109 -11 -200 l-5
-165 29 75 c43 113 122 258 145 268 4 2 7 9 7 15 0 27 146 181 240 253 244
188 545 278 895 268 461 -13 494 -12 660 20 41 7 152 44 195 63 36 16 145 79
168 98 37 29 138 135 162 170 56 82 112 218 126 305 3 19 8 38 10 41 7 12 16
148 16 244 0 236 -48 489 -153 809 -67 205 -83 244 -91 231z"/>
</g>
</svg>
